<svg width="512" height="512" viewBox="0 0 512 512" xmlns="http://www.w3.org/2000/svg">
  <rect x="0" y="0" width="512" height="512" rx="110" fill="#1e3a6e"/>
  <rect x="65" y="195" width="210" height="145" rx="8" fill="#1d4ed8" stroke="#3b82f6" stroke-width="3"/>
  <polyline points="65,200 170,270 275,200" fill="none" stroke="#60a5fa" stroke-width="4"/>
  <rect x="90" y="170" width="210" height="145" rx="8" fill="#2563eb" stroke="#60a5fa" stroke-width="3"/>
  <polyline points="90,175 195,245 300,175" fill="none" stroke="#93c5fd" stroke-width="4"/>
  <rect x="115" y="145" width="210" height="145" rx="8" fill="#3b82f6" stroke="#bfdbfe" stroke-width="3"/>
  <polyline points="115,150 220,220 325,150" fill="none" stroke="white" stroke-width="5"/>
  <line x1="338" y1="188" x2="420" y2="188" stroke="#60a5fa" stroke-width="5" stroke-linecap="round"/>
  <line x1="348" y1="216" x2="415" y2="216" stroke="#93c5fd" stroke-width="4" stroke-linecap="round"/>
  <line x1="358" y1="244" x2="408" y2="244" stroke="#bfdbfe" stroke-width="3" stroke-linecap="round"/>
  <line x1="332" y1="162" x2="412" y2="162" stroke="#bfdbfe" stroke-width="3" stroke-linecap="round"/>
  <circle cx="438" cy="188" r="5" fill="#60a5fa"/>
  <circle cx="456" cy="188" r="4" fill="#93c5fd"/>
  <circle cx="471" cy="188" r="3" fill="#bfdbfe"/>
</svg>
